<svg width="18" height="18" viewBox="0 0 18 18" fill="none" xmlns="http://www.w3.org/2000/svg">
<mask id="mask0_20_1719" style="mask-type:alpha" maskUnits="userSpaceOnUse" x="0" y="0" width="18" height="18">
<rect width="18" height="18" fill="#D9D9D9"/>
</mask>
<g mask="url(#mask0_20_1719)">
<path d="M9.00345 16.5034C7.96595 16.5034 6.99095 16.3064 6.07845 15.9124C5.16595 15.5189 4.3722 14.9847 3.6972 14.3097C3.0222 13.6347 2.48795 12.8409 2.09445 11.9284C1.70045 11.0159 1.50345 10.0409 1.50345 9.00345C1.50345 7.96595 1.70045 6.99095 2.09445 6.07845C2.48795 5.16595 3.0222 4.3722 3.6972 3.6972C4.3722 3.0222 5.16595 2.4877 6.07845 2.0937C6.99095 1.7002 7.96595 1.50345 9.00345 1.50345C10.0409 1.50345 11.0159 1.7002 11.9284 2.0937C12.8409 2.4877 13.6347 3.0222 14.3097 3.6972C14.9847 4.3722 15.5189 5.16595 15.9124 6.07845C16.3064 6.99095 16.5034 7.96595 16.5034 9.00345C16.5034 10.0409 16.3064 11.0159 15.9124 11.9284C15.5189 12.8409 14.9847 13.6347 14.3097 14.3097C13.6347 14.9847 12.8409 15.5189 11.9284 15.9124C11.0159 16.3064 10.0409 16.5034 9.00345 16.5034ZM9.00345 15.0034C10.6784 15.0034 12.0972 14.4222 13.2597 13.2597C14.4222 12.0972 15.0034 10.6784 15.0034 9.00345C15.0034 8.32845 14.8939 7.67845 14.6749 7.05345C14.4564 6.42845 14.1409 5.85345 13.7284 5.32845L5.32845 13.7284C5.85345 14.1409 6.42845 14.4564 7.05345 14.6749C7.67845 14.8939 8.32845 15.0034 9.00345 15.0034ZM4.27845 12.6784L12.6784 4.27845C12.1534 3.86595 11.5784 3.55045 10.9534 3.33195C10.3284 3.11295 9.67845 3.00345 9.00345 3.00345C7.32845 3.00345 5.9097 3.5847 4.7472 4.7472C3.5847 5.9097 3.00345 7.32845 3.00345 9.00345C3.00345 9.67845 3.11295 10.3284 3.33195 10.9534C3.55045 11.5784 3.86595 12.1534 4.27845 12.6784Z" fill="#005BAA"/>
</g>
</svg>
