<svg width="24" height="24" viewBox="0 0 24 24" fill="none" xmlns="http://www.w3.org/2000/svg">
<mask id="mask0_430_49" style="mask-type:alpha" maskUnits="userSpaceOnUse" x="0" y="0" width="24" height="24">
<rect width="24" height="24" fill="#D9D9D9"/>
</mask>
<g mask="url(#mask0_430_49)">
<path d="M18 19.375V15.325H6V19.375C6 19.5583 6.05833 19.7083 6.175 19.825C6.29167 19.9417 6.44167 20 6.625 20H17.375C17.5583 20 17.7083 19.9417 17.825 19.825C17.9417 19.7083 18 19.5583 18 19.375ZM18 14.325V9.675H6L6 14.325H18ZM18 8.675V4.625C18 4.44167 17.9417 4.29167 17.825 4.175C17.7083 4.05833 17.5583 4 17.375 4H6.625C6.44167 4 6.29167 4.05833 6.175 4.175C6.05833 4.29167 6 4.44167 6 4.625V8.675H18ZM19 19.375C19 19.8417 18.846 20.229 18.538 20.537C18.2293 20.8457 17.8417 21 17.375 21H6.625C6.15833 21 5.771 20.8457 5.463 20.537C5.15433 20.229 5 19.8417 5 19.375L5 4.625C5 4.15833 5.15433 3.77067 5.463 3.462C5.771 3.154 6.15833 3 6.625 3H17.375C17.8417 3 18.2293 3.154 18.538 3.462C18.846 3.77067 19 4.15833 19 4.625V19.375Z" fill="#828282"/>
</g>
</svg>
