<svg width="7" height="36" viewBox="0 0 7 36" fill="none" xmlns="http://www.w3.org/2000/svg">
<path d="M2.8 9.99995C2.8 10.77 2.17 11.4 1.4 11.4C0.63 11.4 0 10.77 0 9.99995C0 9.22995 0.63 8.59995 1.4 8.59995C2.17 8.59995 2.8 9.22995 2.8 9.99995ZM1.4 4.39995C0.63 4.39995 0 5.02995 0 5.79995C0 6.56995 0.63 7.19995 1.4 7.19995C2.17 7.19995 2.8 6.56995 2.8 5.79995C2.8 5.02995 2.17 4.39995 1.4 4.39995ZM1.4 0.199951C0.63 0.199951 0 0.829951 0 1.59995C0 2.36995 0.63 2.99995 1.4 2.99995C2.17 2.99995 2.8 2.36995 2.8 1.59995C2.8 0.829951 2.17 0.199951 1.4 0.199951ZM5.6 2.99995C6.37 2.99995 7 2.36995 7 1.59995C7 0.829951 6.37 0.199951 5.6 0.199951C4.83 0.199951 4.2 0.829951 4.2 1.59995C4.2 2.36995 4.83 2.99995 5.6 2.99995ZM5.6 4.39995C4.83 4.39995 4.2 5.02995 4.2 5.79995C4.2 6.56995 4.83 7.19995 5.6 7.19995C6.37 7.19995 7 6.56995 7 5.79995C7 5.02995 6.37 4.39995 5.6 4.39995ZM5.6 8.59995C4.83 8.59995 4.2 9.22995 4.2 9.99995C4.2 10.77 4.83 11.4 5.6 11.4C6.37 11.4 7 10.77 7 9.99995C7 9.22995 6.37 8.59995 5.6 8.59995Z" fill="#BDBDBD"/>
<path d="M2.8 22.1999C2.8 22.9699 2.17 23.5999 1.4 23.5999C0.63 23.5999 0 22.9699 0 22.1999C0 21.4299 0.63 20.7999 1.4 20.7999C2.17 20.7999 2.8 21.4299 2.8 22.1999ZM1.4 16.5999C0.63 16.5999 0 17.2299 0 17.9999C0 18.7699 0.63 19.3999 1.4 19.3999C2.17 19.3999 2.8 18.7699 2.8 17.9999C2.8 17.2299 2.17 16.5999 1.4 16.5999ZM1.4 12.3999C0.63 12.3999 0 13.0299 0 13.7999C0 14.5699 0.63 15.1999 1.4 15.1999C2.17 15.1999 2.8 14.5699 2.8 13.7999C2.8 13.0299 2.17 12.3999 1.4 12.3999ZM5.6 15.1999C6.37 15.1999 7 14.5699 7 13.7999C7 13.0299 6.37 12.3999 5.6 12.3999C4.83 12.3999 4.2 13.0299 4.2 13.7999C4.2 14.5699 4.83 15.1999 5.6 15.1999ZM5.6 16.5999C4.83 16.5999 4.2 17.2299 4.2 17.9999C4.2 18.7699 4.83 19.3999 5.6 19.3999C6.37 19.3999 7 18.7699 7 17.9999C7 17.2299 6.37 16.5999 5.6 16.5999ZM5.6 20.7999C4.83 20.7999 4.2 21.4299 4.2 22.1999C4.2 22.9699 4.83 23.5999 5.6 23.5999C6.37 23.5999 7 22.9699 7 22.1999C7 21.4299 6.37 20.7999 5.6 20.7999Z" fill="#BDBDBD"/>
<path d="M2.8 34.4001C2.8 35.1701 2.17 35.8001 1.4 35.8001C0.63 35.8001 0 35.1701 0 34.4001C0 33.6301 0.63 33.0001 1.4 33.0001C2.17 33.0001 2.8 33.6301 2.8 34.4001ZM1.4 28.8001C0.63 28.8001 0 29.4301 0 30.2001C0 30.9701 0.63 31.6001 1.4 31.6001C2.17 31.6001 2.8 30.9701 2.8 30.2001C2.8 29.4301 2.17 28.8001 1.4 28.8001ZM1.4 24.6001C0.63 24.6001 0 25.2301 0 26.0001C0 26.7701 0.63 27.4001 1.4 27.4001C2.17 27.4001 2.8 26.7701 2.8 26.0001C2.8 25.2301 2.17 24.6001 1.4 24.6001ZM5.6 27.4001C6.37 27.4001 7 26.7701 7 26.0001C7 25.2301 6.37 24.6001 5.6 24.6001C4.83 24.6001 4.2 25.2301 4.2 26.0001C4.2 26.7701 4.83 27.4001 5.6 27.4001ZM5.6 28.8001C4.83 28.8001 4.2 29.4301 4.2 30.2001C4.2 30.9701 4.83 31.6001 5.6 31.6001C6.37 31.6001 7 30.9701 7 30.2001C7 29.4301 6.37 28.8001 5.6 28.8001ZM5.6 33.0001C4.83 33.0001 4.2 33.6301 4.2 34.4001C4.2 35.1701 4.83 35.8001 5.6 35.8001C6.37 35.8001 7 35.1701 7 34.4001C7 33.6301 6.37 33.0001 5.6 33.0001Z" fill="#BDBDBD"/>
</svg>
