<svg width="24" height="24" viewBox="0 0 24 24" fill="none" xmlns="http://www.w3.org/2000/svg">
<path d="M5 9.625V5.75C5 5.33437 5.33437 5 5.75 5H9.625C9.83125 5 10 5.16875 10 5.375V6.625C10 6.83125 9.83125 7 9.625 7H7V9.625C7 9.83125 6.83125 10 6.625 10H5.375C5.16875 10 5 9.83125 5 9.625ZM14 5.375V6.625C14 6.83125 14.1688 7 14.375 7H17V9.625C17 9.83125 17.1688 10 17.375 10H18.625C18.8312 10 19 9.83125 19 9.625V5.75C19 5.33437 18.6656 5 18.25 5H14.375C14.1688 5 14 5.16875 14 5.375ZM18.625 14H17.375C17.1688 14 17 14.1688 17 14.375V17H14.375C14.1688 17 14 17.1688 14 17.375V18.625C14 18.8312 14.1688 19 14.375 19H18.25C18.6656 19 19 18.6656 19 18.25V14.375C19 14.1688 18.8312 14 18.625 14ZM10 18.625V17.375C10 17.1688 9.83125 17 9.625 17H7V14.375C7 14.1688 6.83125 14 6.625 14H5.375C5.16875 14 5 14.1688 5 14.375V18.25C5 18.6656 5.33437 19 5.75 19H9.625C9.83125 19 10 18.8312 10 18.625Z" fill="#828282"/>
</svg>
