<svg width="20" height="20" viewBox="0 0 20 20" fill="none" xmlns="http://www.w3.org/2000/svg">
<mask id="mask0_20_1724" style="mask-type:alpha" maskUnits="userSpaceOnUse" x="0" y="0" width="20" height="20">
<rect width="20" height="20" fill="#D9D9D9"/>
</mask>
<g mask="url(#mask0_20_1724)">
<path d="M4.16667 15.8336H5.33333L12.5208 8.64607L11.3542 7.4794L4.16667 14.6669V15.8336ZM16.0833 7.43773L12.5417 3.93773L13.7083 2.77107C14.0278 2.45162 14.4203 2.2919 14.8858 2.2919C15.3508 2.2919 15.7431 2.45162 16.0625 2.77107L17.2292 3.93773C17.5486 4.25718 17.7153 4.64273 17.7292 5.0944C17.7431 5.54551 17.5903 5.93079 17.2708 6.25023L16.0833 7.43773ZM14.875 8.6669L6.04167 17.5002H2.5V13.9586L11.3333 5.12523L14.875 8.6669Z" fill="#005BAA"/>
</g>
</svg>
