<svg width="24" height="24" viewBox="0 0 24 24" fill="none" xmlns="http://www.w3.org/2000/svg">
<mask id="mask0_430_53" style="mask-type:alpha" maskUnits="userSpaceOnUse" x="0" y="0" width="24" height="24">
<rect y="24" width="24" height="24" transform="rotate(-90 0 24)" fill="#D9D9D9"/>
</mask>
<g mask="url(#mask0_430_53)">
<path d="M4.625 18H8.675V6H4.625C4.44167 6 4.29167 6.05833 4.175 6.175C4.05833 6.29167 4 6.44167 4 6.625V17.375C4 17.5583 4.05833 17.7083 4.175 17.825C4.29167 17.9417 4.44167 18 4.625 18ZM9.675 18H14.325V6H9.675V18ZM15.325 18H19.375C19.5583 18 19.7083 17.9417 19.825 17.825C19.9417 17.7083 20 17.5583 20 17.375V6.625C20 6.44167 19.9417 6.29167 19.825 6.175C19.7083 6.05833 19.5583 6 19.375 6H15.325V18ZM4.625 19C4.15833 19 3.771 18.846 3.463 18.538C3.15433 18.2293 3 17.8417 3 17.375V6.625C3 6.15833 3.15433 5.771 3.463 5.463C3.771 5.15433 4.15833 5 4.625 5H19.375C19.8417 5 20.2293 5.15433 20.538 5.463C20.846 5.771 21 6.15833 21 6.625V17.375C21 17.8417 20.846 18.2293 20.538 18.538C20.2293 18.846 19.8417 19 19.375 19H4.625Z" fill="#828282"/>
</g>
</svg>
