<svg xmlns="http://www.w3.org/2000/svg"><style>:root svg:not(:target){display:none}</style><svg viewBox="0 0 18 18" fill="none" id="block"><mask id="block_0" style="mask-type:alpha" maskUnits="userSpaceOnUse" x="0" y="0" width="18" height="18"><rect width="18" height="18" fill="#D9D9D9"></rect></mask><g mask="url(#block_0)"><path d="M9.00345 16.5034C7.96595 16.5034 6.99095 16.3064 6.07845 15.9124C5.16595 15.5189 4.3722 14.9847 3.6972 14.3097C3.0222 13.6347 2.48795 12.8409 2.09445 11.9284C1.70045 11.0159 1.50345 10.0409 1.50345 9.00345C1.50345 7.96595 1.70045 6.99095 2.09445 6.07845C2.48795 5.16595 3.0222 4.3722 3.6972 3.6972C4.3722 3.0222 5.16595 2.4877 6.07845 2.0937C6.99095 1.7002 7.96595 1.50345 9.00345 1.50345C10.0409 1.50345 11.0159 1.7002 11.9284 2.0937C12.8409 2.4877 13.6347 3.0222 14.3097 3.6972C14.9847 4.3722 15.5189 5.16595 15.9124 6.07845C16.3064 6.99095 16.5034 7.96595 16.5034 9.00345C16.5034 10.0409 16.3064 11.0159 15.9124 11.9284C15.5189 12.8409 14.9847 13.6347 14.3097 14.3097C13.6347 14.9847 12.8409 15.5189 11.9284 15.9124C11.0159 16.3064 10.0409 16.5034 9.00345 16.5034ZM9.00345 15.0034C10.6784 15.0034 12.0972 14.4222 13.2597 13.2597C14.4222 12.0972 15.0034 10.6784 15.0034 9.00345C15.0034 8.32845 14.8939 7.67845 14.6749 7.05345C14.4564 6.42845 14.1409 5.85345 13.7284 5.32845L5.32845 13.7284C5.85345 14.1409 6.42845 14.4564 7.05345 14.6749C7.67845 14.8939 8.32845 15.0034 9.00345 15.0034ZM4.27845 12.6784L12.6784 4.27845C12.1534 3.86595 11.5784 3.55045 10.9534 3.33195C10.3284 3.11295 9.67845 3.00345 9.00345 3.00345C7.32845 3.00345 5.9097 3.5847 4.7472 4.7472C3.5847 5.9097 3.00345 7.32845 3.00345 9.00345C3.00345 9.67845 3.11295 10.3284 3.33195 10.9534C3.55045 11.5784 3.86595 12.1534 4.27845 12.6784Z" fill="#005BAA"></path></g></svg><svg viewBox="0 0 24 24" fill="none" id="case"><g clip-path="url(#case_0)"><path d="M18 16H16V15H8V16H6V15H2V20H22V15H18V16Z" fill="#F2F2F2"></path><path d="M20 8H17V6C17 4.9 16.1 4 15 4H9C7.9 4 7 4.9 7 6V8H4C2.9 8 2 8.9 2 10V14H6V12H8V14H16V12H18V14H22V10C22 8.9 21.1 8 20 8ZM15 8H9V6H15V8Z" fill="#F2F2F2"></path></g><defs><clipPath id="case_0"><rect width="24" height="24" fill="white"></rect></clipPath></defs></svg><svg viewBox="0 0 14 14" fill="none" id="certificate"><g clip-path="url(#certificate_0)"><path d="M12.5404 6.99779L13.7978 5.76719C14.1727 5.41235 13.9979 4.78175 13.5063 4.66417L11.7932 4.22694L12.2761 2.53122C12.4126 2.04346 11.9526 1.5834 11.465 1.7199L9.76989 2.20299L9.33283 0.489325C9.21717 0.00536835 8.57951 -0.171628 8.23019 0.197622L7 1.46479L5.76983 0.19765C5.42448 -0.167417 4.78417 -0.000155121 4.66719 0.489353L4.23013 2.20301L2.53496 1.71993C2.04723 1.58338 1.58747 2.0436 1.72391 2.53125L2.20683 4.22697L0.493745 4.6642C0.00188577 4.7818 -0.17254 5.41251 0.202124 5.76719L1.45953 6.99779L0.202124 8.22837C-0.172704 8.58321 0.00207725 9.21381 0.493718 9.33139L2.2068 9.76862L1.72389 11.4643C1.58741 11.9521 2.04734 12.4122 2.53493 12.2757L4.23008 11.7926L4.66714 13.5062C4.78852 14.0141 5.42445 14.163 5.76978 13.7979L7 12.5401L8.23017 13.7979C8.57196 14.1667 9.21419 14.0026 9.3328 13.5062L9.76987 11.7926L11.465 12.2757C11.9527 12.4122 12.4125 11.952 12.2761 11.4643L11.7931 9.76862L13.5062 9.33139C13.9981 9.21376 14.1725 8.58307 13.7978 8.22837L12.5404 6.99779Z" fill="#005BAA"></path></g><defs><clipPath id="certificate_0"><rect width="14" height="14" fill="white"></rect></clipPath></defs></svg><svg viewBox="0 0 20 20" fill="none" id="check"><path fill-rule="evenodd" clip-rule="evenodd" d="M6.44524 9.51039L5.15967 11.0425L9.37291 14.5778L15.8008 6.91737L14.2687 5.63179L9.1264 11.7601L6.44524 9.51039Z" fill="white"></path></svg><svg viewBox="0 0 24 24" fill="none" id="column"><mask id="column_0" style="mask-type:alpha" maskUnits="userSpaceOnUse" x="0" y="0" width="24" height="24"><rect width="24" height="24" fill="#D9D9D9"></rect></mask><g mask="url(#column_0)"><path d="M18 19.375V15.325H6V19.375C6 19.5583 6.05833 19.7083 6.175 19.825C6.29167 19.9417 6.44167 20 6.625 20H17.375C17.5583 20 17.7083 19.9417 17.825 19.825C17.9417 19.7083 18 19.5583 18 19.375ZM18 14.325V9.675H6L6 14.325H18ZM18 8.675V4.625C18 4.44167 17.9417 4.29167 17.825 4.175C17.7083 4.05833 17.5583 4 17.375 4H6.625C6.44167 4 6.29167 4.05833 6.175 4.175C6.05833 4.29167 6 4.44167 6 4.625V8.675H18ZM19 19.375C19 19.8417 18.846 20.229 18.538 20.537C18.2293 20.8457 17.8417 21 17.375 21H6.625C6.15833 21 5.771 20.8457 5.463 20.537C5.15433 20.229 5 19.8417 5 19.375L5 4.625C5 4.15833 5.15433 3.77067 5.463 3.462C5.771 3.154 6.15833 3 6.625 3H17.375C17.8417 3 18.2293 3.154 18.538 3.462C18.846 3.77067 19 4.15833 19 4.625V19.375Z" fill="#828282"></path></g></svg><svg viewBox="0 0 24 24" fill="none" id="column1"><g clip-path="url(#column1_0)"><path d="M19 22V15.6842H12V22H19ZM19 14.6316V2H12V14.6316H19ZM5 22H11V2H5L5 22Z" fill="#F2F2F2"></path></g><defs><clipPath id="column1_0"><rect width="24" height="24" fill="white" transform="matrix(0 -1 1 0 0 24)"></rect></clipPath></defs></svg><svg viewBox="0 0 20 20" fill="none" id="delete"><mask id="delete_0" style="mask-type:alpha" maskUnits="userSpaceOnUse" x="0" y="0" width="20" height="20"><rect width="20" height="20" fill="#D9D9D9"></rect></mask><g mask="url(#delete_0)"><path d="M5.83343 17.5C5.3751 17.5 4.98288 17.3369 4.65677 17.0108C4.3301 16.6842 4.16677 16.2917 4.16677 15.8333V5H3.33344V3.33333H7.5001V2.5H12.5001V3.33333H16.6668V5H15.8334V15.8333C15.8334 16.2917 15.6704 16.6842 15.3443 17.0108C15.0176 17.3369 14.6251 17.5 14.1668 17.5H5.83343ZM14.1668 5H5.83343V15.8333H14.1668V5ZM7.5001 14.1667H9.16677V6.66667H7.5001V14.1667ZM10.8334 14.1667H12.5001V6.66667H10.8334V14.1667Z" fill="#005BAA"></path></g></svg><svg viewBox="0 0 24 24" fill="none" id="document"><path d="M14 2H6C4.9 2 4 2.9 4 4V20C4 21.1 4.9 22 6 22H18C19.1 22 20 21.1 20 20V8L14 2ZM16 18H8V16H16V18ZM16 14H8V12H16V14ZM13 9V3.5L18.5 9H13Z" fill="#F2F2F2"></path></svg><svg viewBox="0 0 12 12" fill="none" id="down"><g clip-path="url(#down_0)"><rect width="12" height="12" fill="white" fill-opacity="0.01"></rect><path d="M1.5 3.75L6 8.25L10.5 3.75" stroke="#343A40" stroke-width="2" stroke-linecap="round" stroke-linejoin="round"></path></g><defs><clipPath id="down_0"><rect width="12" height="12" fill="white"></rect></clipPath></defs></svg><svg viewBox="0 0 20 20" fill="none" id="edit"><mask id="edit_0" style="mask-type:alpha" maskUnits="userSpaceOnUse" x="0" y="0" width="20" height="20"><rect width="20" height="20" fill="#D9D9D9"></rect></mask><g mask="url(#edit_0)"><path d="M4.16667 15.8336H5.33333L12.5208 8.64607L11.3542 7.4794L4.16667 14.6669V15.8336ZM16.0833 7.43773L12.5417 3.93773L13.7083 2.77107C14.0278 2.45162 14.4203 2.2919 14.8858 2.2919C15.3508 2.2919 15.7431 2.45162 16.0625 2.77107L17.2292 3.93773C17.5486 4.25718 17.7153 4.64273 17.7292 5.0944C17.7431 5.54551 17.5903 5.93079 17.2708 6.25023L16.0833 7.43773ZM14.875 8.6669L6.04167 17.5002H2.5V13.9586L11.3333 5.12523L14.875 8.6669Z" fill="#005BAA"></path></g></svg><svg viewBox="0 0 24 24" fill="none" id="expand"><path d="M5 9.625V5.75C5 5.33437 5.33437 5 5.75 5H9.625C9.83125 5 10 5.16875 10 5.375V6.625C10 6.83125 9.83125 7 9.625 7H7V9.625C7 9.83125 6.83125 10 6.625 10H5.375C5.16875 10 5 9.83125 5 9.625ZM14 5.375V6.625C14 6.83125 14.1688 7 14.375 7H17V9.625C17 9.83125 17.1688 10 17.375 10H18.625C18.8312 10 19 9.83125 19 9.625V5.75C19 5.33437 18.6656 5 18.25 5H14.375C14.1688 5 14 5.16875 14 5.375ZM18.625 14H17.375C17.1688 14 17 14.1688 17 14.375V17H14.375C14.1688 17 14 17.1688 14 17.375V18.625C14 18.8312 14.1688 19 14.375 19H18.25C18.6656 19 19 18.6656 19 18.25V14.375C19 14.1688 18.8312 14 18.625 14ZM10 18.625V17.375C10 17.1688 9.83125 17 9.625 17H7V14.375C7 14.1688 6.83125 14 6.625 14H5.375C5.16875 14 5 14.1688 5 14.375V18.25C5 18.6656 5.33437 19 5.75 19H9.625C9.83125 19 10 18.8312 10 18.625Z" fill="#828282"></path></svg><svg viewBox="0 0 24 24" fill="none" id="menu"><mask id="menu_0" style="mask-type:alpha" maskUnits="userSpaceOnUse" x="0" y="0" width="24" height="24"><rect width="24" height="24" fill="#D9D9D9"></rect></mask><g mask="url(#menu_0)"><path d="M3 18V16H21V18H3ZM3 13V11H21V13H3ZM3 8V6H21V8H3Z" fill="#828282"></path></g></svg><svg viewBox="0 0 14 14" fill="none" id="plus"><path d="M14 8H8V14H6V8H0V6H6V0H8V6H14V8Z" fill="#005BAA"></path></svg><svg viewBox="0 0 7 36" fill="none" id="resize"><path d="M2.8 9.99995C2.8 10.77 2.17 11.4 1.4 11.4C0.63 11.4 0 10.77 0 9.99995C0 9.22995 0.63 8.59995 1.4 8.59995C2.17 8.59995 2.8 9.22995 2.8 9.99995ZM1.4 4.39995C0.63 4.39995 0 5.02995 0 5.79995C0 6.56995 0.63 7.19995 1.4 7.19995C2.17 7.19995 2.8 6.56995 2.8 5.79995C2.8 5.02995 2.17 4.39995 1.4 4.39995ZM1.4 0.199951C0.63 0.199951 0 0.829951 0 1.59995C0 2.36995 0.63 2.99995 1.4 2.99995C2.17 2.99995 2.8 2.36995 2.8 1.59995C2.8 0.829951 2.17 0.199951 1.4 0.199951ZM5.6 2.99995C6.37 2.99995 7 2.36995 7 1.59995C7 0.829951 6.37 0.199951 5.6 0.199951C4.83 0.199951 4.2 0.829951 4.2 1.59995C4.2 2.36995 4.83 2.99995 5.6 2.99995ZM5.6 4.39995C4.83 4.39995 4.2 5.02995 4.2 5.79995C4.2 6.56995 4.83 7.19995 5.6 7.19995C6.37 7.19995 7 6.56995 7 5.79995C7 5.02995 6.37 4.39995 5.6 4.39995ZM5.6 8.59995C4.83 8.59995 4.2 9.22995 4.2 9.99995C4.2 10.77 4.83 11.4 5.6 11.4C6.37 11.4 7 10.77 7 9.99995C7 9.22995 6.37 8.59995 5.6 8.59995Z" fill="#BDBDBD"></path><path d="M2.8 22.1999C2.8 22.9699 2.17 23.5999 1.4 23.5999C0.63 23.5999 0 22.9699 0 22.1999C0 21.4299 0.63 20.7999 1.4 20.7999C2.17 20.7999 2.8 21.4299 2.8 22.1999ZM1.4 16.5999C0.63 16.5999 0 17.2299 0 17.9999C0 18.7699 0.63 19.3999 1.4 19.3999C2.17 19.3999 2.8 18.7699 2.8 17.9999C2.8 17.2299 2.17 16.5999 1.4 16.5999ZM1.4 12.3999C0.63 12.3999 0 13.0299 0 13.7999C0 14.5699 0.63 15.1999 1.4 15.1999C2.17 15.1999 2.8 14.5699 2.8 13.7999C2.8 13.0299 2.17 12.3999 1.4 12.3999ZM5.6 15.1999C6.37 15.1999 7 14.5699 7 13.7999C7 13.0299 6.37 12.3999 5.6 12.3999C4.83 12.3999 4.2 13.0299 4.2 13.7999C4.2 14.5699 4.83 15.1999 5.6 15.1999ZM5.6 16.5999C4.83 16.5999 4.2 17.2299 4.2 17.9999C4.2 18.7699 4.83 19.3999 5.6 19.3999C6.37 19.3999 7 18.7699 7 17.9999C7 17.2299 6.37 16.5999 5.6 16.5999ZM5.6 20.7999C4.83 20.7999 4.2 21.4299 4.2 22.1999C4.2 22.9699 4.83 23.5999 5.6 23.5999C6.37 23.5999 7 22.9699 7 22.1999C7 21.4299 6.37 20.7999 5.6 20.7999Z" fill="#BDBDBD"></path><path d="M2.8 34.4001C2.8 35.1701 2.17 35.8001 1.4 35.8001C0.63 35.8001 0 35.1701 0 34.4001C0 33.6301 0.63 33.0001 1.4 33.0001C2.17 33.0001 2.8 33.6301 2.8 34.4001ZM1.4 28.8001C0.63 28.8001 0 29.4301 0 30.2001C0 30.9701 0.63 31.6001 1.4 31.6001C2.17 31.6001 2.8 30.9701 2.8 30.2001C2.8 29.4301 2.17 28.8001 1.4 28.8001ZM1.4 24.6001C0.63 24.6001 0 25.2301 0 26.0001C0 26.7701 0.63 27.4001 1.4 27.4001C2.17 27.4001 2.8 26.7701 2.8 26.0001C2.8 25.2301 2.17 24.6001 1.4 24.6001ZM5.6 27.4001C6.37 27.4001 7 26.7701 7 26.0001C7 25.2301 6.37 24.6001 5.6 24.6001C4.83 24.6001 4.2 25.2301 4.2 26.0001C4.2 26.7701 4.83 27.4001 5.6 27.4001ZM5.6 28.8001C4.83 28.8001 4.2 29.4301 4.2 30.2001C4.2 30.9701 4.83 31.6001 5.6 31.6001C6.37 31.6001 7 30.9701 7 30.2001C7 29.4301 6.37 28.8001 5.6 28.8001ZM5.6 33.0001C4.83 33.0001 4.2 33.6301 4.2 34.4001C4.2 35.1701 4.83 35.8001 5.6 35.8001C6.37 35.8001 7 35.1701 7 34.4001C7 33.6301 6.37 33.0001 5.6 33.0001Z" fill="#BDBDBD"></path></svg><svg viewBox="0 0 24 24" fill="none" id="row"><mask id="row_0" style="mask-type:alpha" maskUnits="userSpaceOnUse" x="0" y="0" width="24" height="24"><rect y="24" width="24" height="24" transform="rotate(-90 0 24)" fill="#D9D9D9"></rect></mask><g mask="url(#row_0)"><path d="M4.625 18H8.675V6H4.625C4.44167 6 4.29167 6.05833 4.175 6.175C4.05833 6.29167 4 6.44167 4 6.625V17.375C4 17.5583 4.05833 17.7083 4.175 17.825C4.29167 17.9417 4.44167 18 4.625 18ZM9.675 18H14.325V6H9.675V18ZM15.325 18H19.375C19.5583 18 19.7083 17.9417 19.825 17.825C19.9417 17.7083 20 17.5583 20 17.375V6.625C20 6.44167 19.9417 6.29167 19.825 6.175C19.7083 6.05833 19.5583 6 19.375 6H15.325V18ZM4.625 19C4.15833 19 3.771 18.846 3.463 18.538C3.15433 18.2293 3 17.8417 3 17.375V6.625C3 6.15833 3.15433 5.771 3.463 5.463C3.771 5.15433 4.15833 5 4.625 5H19.375C19.8417 5 20.2293 5.15433 20.538 5.463C20.846 5.771 21 6.15833 21 6.625V17.375C21 17.8417 20.846 18.2293 20.538 18.538C20.2293 18.846 19.8417 19 19.375 19H4.625Z" fill="#828282"></path></g></svg><svg viewBox="0 0 24 24" fill="none" id="row1"><g clip-path="url(#row1_0)"><path d="M6 5H3C2.45 5 2 5.45 2 6V18C2 18.55 2.45 19 3 19H6C6.55 19 7 18.55 7 18V6C7 5.45 6.55 5 6 5ZM20 5H17C16.45 5 16 5.45 16 6V18C16 18.55 16.45 19 17 19H20C20.55 19 21 18.55 21 18V6C21 5.45 20.55 5 20 5ZM13 5H10C9.45 5 9 5.45 9 6V18C9 18.55 9.45 19 10 19H13C13.55 19 14 18.55 14 18V6C14 5.45 13.55 5 13 5Z" fill="#4F4F4F"></path></g><defs><clipPath id="row1_0"><rect width="24" height="24" fill="white"></rect></clipPath></defs></svg><svg viewBox="0 0 16 16" fill="none" id="save"><path d="M16 3.425V14.375C16 14.8417 15.846 15.2293 15.538 15.538C15.2293 15.846 14.8417 16 14.375 16H1.625C1.15833 16 0.771 15.846 0.463 15.538C0.154333 15.2293 0 14.8417 0 14.375V1.625C0 1.15833 0.154333 0.771 0.463 0.463C0.771 0.154333 1.15833 0 1.625 0H12.575L16 3.425ZM15 3.85L12.15 1H1.625C1.44167 1 1.29167 1.05833 1.175 1.175C1.05833 1.29167 1 1.44167 1 1.625V14.375C1 14.5583 1.05833 14.7083 1.175 14.825C1.29167 14.9417 1.44167 15 1.625 15H14.375C14.5583 15 14.7083 14.9417 14.825 14.825C14.9417 14.7083 15 14.5583 15 14.375V3.85ZM8 12.55C8.55 12.55 9.021 12.3543 9.413 11.963C9.80433 11.571 10 11.1 10 10.55C10 9.98333 9.80433 9.50833 9.413 9.125C9.021 8.74167 8.55 8.55 8 8.55C7.45 8.55 6.97933 8.74167 6.588 9.125C6.196 9.50833 6 9.98333 6 10.55C6 11.1 6.196 11.571 6.588 11.963C6.97933 12.3543 7.45 12.55 8 12.55ZM2.775 5.775H10.2V2.775H2.775V5.775Z" fill="white"></path></svg><svg viewBox="0 0 24 24" fill="none" id="timeline"><g clip-path="url(#timeline_0)"><path d="M23 8C23 9.1 22.1 10 21 10C20.82 10 20.65 9.98 20.49 9.93L16.93 13.48C16.98 13.64 17 13.82 17 14C17 15.1 16.1 16 15 16C13.9 16 13 15.1 13 14C13 13.82 13.02 13.64 13.07 13.48L10.52 10.93C10.36 10.98 10.18 11 10 11C9.82 11 9.64 10.98 9.48 10.93L4.93 15.49C4.98 15.65 5 15.82 5 16C5 17.1 4.1 18 3 18C1.9 18 1 17.1 1 16C1 14.9 1.9 14 3 14C3.18 14 3.35 14.02 3.51 14.07L8.07 9.52C8.02 9.36 8 9.18 8 9C8 7.9 8.9 7 10 7C11.1 7 12 7.9 12 9C12 9.18 11.98 9.36 11.93 9.52L14.48 12.07C14.64 12.02 14.82 12 15 12C15.18 12 15.36 12.02 15.52 12.07L19.07 8.51C19.02 8.35 19 8.18 19 8C19 6.9 19.9 6 21 6C22.1 6 23 6.9 23 8Z" fill="#666666"></path></g><defs><clipPath id="timeline_0"><rect width="24" height="24" fill="white"></rect></clipPath></defs></svg></svg>