<svg width="14" height="14" viewBox="0 0 14 14" fill="none" xmlns="http://www.w3.org/2000/svg">
<g clip-path="url(#clip0_20_1715)">
<path d="M12.5404 6.99779L13.7978 5.76719C14.1727 5.41235 13.9979 4.78175 13.5063 4.66417L11.7932 4.22694L12.2761 2.53122C12.4126 2.04346 11.9526 1.5834 11.465 1.7199L9.76989 2.20299L9.33283 0.489325C9.21717 0.00536835 8.57951 -0.171628 8.23019 0.197622L7 1.46479L5.76983 0.19765C5.42448 -0.167417 4.78417 -0.000155121 4.66719 0.489353L4.23013 2.20301L2.53496 1.71993C2.04723 1.58338 1.58747 2.0436 1.72391 2.53125L2.20683 4.22697L0.493745 4.6642C0.00188577 4.7818 -0.17254 5.41251 0.202124 5.76719L1.45953 6.99779L0.202124 8.22837C-0.172704 8.58321 0.00207725 9.21381 0.493718 9.33139L2.2068 9.76862L1.72389 11.4643C1.58741 11.9521 2.04734 12.4122 2.53493 12.2757L4.23008 11.7926L4.66714 13.5062C4.78852 14.0141 5.42445 14.163 5.76978 13.7979L7 12.5401L8.23017 13.7979C8.57196 14.1667 9.21419 14.0026 9.3328 13.5062L9.76987 11.7926L11.465 12.2757C11.9527 12.4122 12.4125 11.952 12.2761 11.4643L11.7931 9.76862L13.5062 9.33139C13.9981 9.21376 14.1725 8.58307 13.7978 8.22837L12.5404 6.99779Z" fill="#005BAA"/>
</g>
<defs>
<clipPath id="clip0_20_1715">
<rect width="14" height="14" fill="white"/>
</clipPath>
</defs>
</svg>
