<svg width="16" height="16" viewBox="0 0 16 16" fill="none" xmlns="http://www.w3.org/2000/svg">
<path d="M16 3.425V14.375C16 14.8417 15.846 15.2293 15.538 15.538C15.2293 15.846 14.8417 16 14.375 16H1.625C1.15833 16 0.771 15.846 0.463 15.538C0.154333 15.2293 0 14.8417 0 14.375V1.625C0 1.15833 0.154333 0.771 0.463 0.463C0.771 0.154333 1.15833 0 1.625 0H12.575L16 3.425ZM15 3.85L12.15 1H1.625C1.44167 1 1.29167 1.05833 1.175 1.175C1.05833 1.29167 1 1.44167 1 1.625V14.375C1 14.5583 1.05833 14.7083 1.175 14.825C1.29167 14.9417 1.44167 15 1.625 15H14.375C14.5583 15 14.7083 14.9417 14.825 14.825C14.9417 14.7083 15 14.5583 15 14.375V3.85ZM8 12.55C8.55 12.55 9.021 12.3543 9.413 11.963C9.80433 11.571 10 11.1 10 10.55C10 9.98333 9.80433 9.50833 9.413 9.125C9.021 8.74167 8.55 8.55 8 8.55C7.45 8.55 6.97933 8.74167 6.588 9.125C6.196 9.50833 6 9.98333 6 10.55C6 11.1 6.196 11.571 6.588 11.963C6.97933 12.3543 7.45 12.55 8 12.55ZM2.775 5.775H10.2V2.775H2.775V5.775Z" fill="white"/>
</svg>
